<?xml version="1.0" encoding="UTF-8" standalone="no"?>
<svg
   width="32"
   height="32"
   viewBox="0 0 32 32"
   version="1.1"
   id="svg1"
   sodipodi:docname="favicon.svg"
   inkscape:version="1.4.2 (ebf0e940d0, 2025-05-08)"
   xmlns:inkscape="http://www.inkscape.org/namespaces/inkscape"
   xmlns:sodipodi="http://sodipodi.sourceforge.net/DTD/sodipodi-0.dtd"
   xmlns="http://www.w3.org/2000/svg"
   xmlns:svg="http://www.w3.org/2000/svg">
  <defs
     id="defs1" />
  <sodipodi:namedview
     id="namedview1"
     pagecolor="#ffffff"
     bordercolor="#999999"
     borderopacity="1"
     inkscape:showpageshadow="2"
     inkscape:pageopacity="0"
     inkscape:pagecheckerboard="0"
     inkscape:deskcolor="#d1d1d1"
     inkscape:zoom="16.815883"
     inkscape:cx="14.004617"
     inkscape:cy="15.431839"
     inkscape:window-width="3802"
     inkscape:window-height="1011"
     inkscape:window-x="0"
     inkscape:window-y="0"
     inkscape:window-maximized="1"
     inkscape:current-layer="svg1" />
  <!-- FAVICON: Extracted icon elements from LarxLogo.svg with correct positioning -->
  <g
     id="g1"
     transform="translate(0.76582306,-0.03982312)">
    <g
       id="favicon-larx-icon"
       transform="matrix(0.3994548,0,0,0.3994548,-150.67668,-37.807561)">
      <!-- Icon Circle 1: Large circle (exact from original) -->
      <circle
         id="favicon-icon-circle-1"
         style="fill:#8cb1c9;fill-opacity:1;fill-rule:nonzero;stroke:#000000;stroke-width:0.467416;stroke-dasharray:none;stroke-opacity:1"
         cx="406.45013"
         cy="169.87653"
         r="4.3965836"
         transform="matrix(1.1140899,0,0,1.1140899,-58.305019,-58.82489)" />
      <!-- Icon Circle 2: Medium circle (exact from original) -->
      <circle
         id="favicon-icon-circle-2"
         style="fill:#8cb1c9;fill-opacity:1;fill-rule:nonzero;stroke:#000000;stroke-width:0.467416;stroke-dasharray:none;stroke-opacity:1"
         cx="426.39218"
         cy="169.84685"
         r="3.1686611"
         transform="matrix(1.1140899,0,0,1.1140899,-58.305019,-58.82489)" />
      <!-- Icon Circle 3: Large bottom circle (exact from original) -->
      <circle
         id="favicon-icon-circle-3"
         style="fill:#8cb1c9;fill-opacity:1;fill-rule:nonzero;stroke:#000000;stroke-width:0.467416;stroke-dasharray:none;stroke-opacity:1"
         cx="443.67349"
         cy="180.83017"
         r="4.5603065"
         transform="matrix(1.1140899,0,0,1.1140899,-58.305019,-58.82489)" />
      <!-- Icon Vertical Connector (exact from original) -->
      <path
         id="favicon-icon-vertical-connector"
         style="fill:#8cb1c9;fill-opacity:1;fill-rule:nonzero;stroke:#000000;stroke-width:0.467416;stroke-dasharray:none;stroke-opacity:1"
         d="m 434.38395,138.37163 a 3.1686614,3.1686614 0 0 0 -3.28548,3.04394 3.1686614,3.1686614 0 0 0 1.81061,2.98162 v 7.14439 a 3.1686614,3.1686614 0 0 0 -1.81061,2.73283 3.1686614,3.1686614 0 0 0 1.81061,2.9821 v 32.1268 a 3.1686614,3.1686614 0 0 0 -1.81061,2.73331 3.1686614,3.1686614 0 0 0 3.04007,3.28886 3.1686614,3.1686614 0 0 0 3.29224,-3.03669 l 4.9e-4,-0.0135 a 3.1686614,3.1686614 0 0 0 -1.8111,-2.97921 v -32.12293 a 3.1686614,3.1686614 0 0 0 1.81061,-2.72655 l 4.9e-4,-0.0135 a 3.1686614,3.1686614 0 0 0 -1.8111,-2.97872 v -7.14052 a 3.1686614,3.1686614 0 0 0 1.81061,-2.72655 l 4.9e-4,-0.013 a 3.1686614,3.1686614 0 0 0 -3.04732,-3.28259 z"
         transform="matrix(1.1140899,0,0,1.1140899,-58.305019,-58.82489)" />
      <!-- Icon Main Structure (exact from original) -->
      <path
         id="favicon-icon-main-structure"
         style="fill:#8cb1c9;fill-opacity:1;stroke:#000000;stroke-width:0.520744;stroke-dasharray:none"
         d="m 406.63432,114.89687 a 4.8981895,4.8981895 0 0 0 -5.07848,4.70497 4.8981895,4.8981895 0 0 0 3.09197,4.70605 v 26.50544 a 4.8981895,4.8981895 0 0 0 -3.09197,4.32124 4.8981895,4.8981895 0 0 0 3.09197,4.70659 v 6.08439 a 4.3965836,4.3965836 0 0 0 -2.59091,3.78088 4.3965836,4.3965836 0 0 0 4.21844,4.56342 4.3965836,4.3965836 0 0 0 4.56773,-4.21359 l 5.4e-4,-0.0188 a 4.3965836,4.3965836 0 0 0 -2.59091,-4.16515 v -6.03649 a 4.8981895,4.8981895 0 0 0 3.09144,-4.31155 l 0.001,-0.0204 a 4.8981895,4.8981895 0 0 0 -3.09252,-4.72758 V 124.3026 a 4.8981895,4.8981895 0 0 0 3.09144,-4.31101 l 10e-4,-0.021 a 4.8981895,4.8981895 0 0 0 -4.7109,-5.07364 z" />
    </g>
  </g>
</svg>
